<svg width="24" height="24" viewBox="0 0 24 24" fill="none" xmlns="http://www.w3.org/2000/svg">
<path fill-rule="evenodd" clip-rule="evenodd" d="M3.32725 3.29346C3.71778 2.90293 4.35094 2.90293 4.74146 3.29346L11.9999 10.5519L19.2584 3.29346C19.649 2.90293 20.2821 2.90293 20.6726 3.29346L20.7067 3.32751C21.0972 3.71803 21.0972 4.3512 20.7067 4.74172L13.4482 12.0002L20.7064 19.2584C21.097 19.649 21.097 20.2821 20.7064 20.6727L20.6724 20.7067C20.2819 21.0972 19.6487 21.0972 19.2582 20.7067L11.9999 13.4485L4.74171 20.7067C4.35119 21.0972 3.71802 21.0972 3.3275 20.7067L3.29344 20.6727C2.90292 20.2821 2.90292 19.649 3.29344 19.2584L10.5517 12.0002L3.2932 4.74172C2.90267 4.3512 2.90267 3.71803 3.2932 3.32751L3.32725 3.29346Z" fill="#010E28"/>
</svg>
