<svg width="24" height="24" viewBox="0 0 24 24" fill="none" xmlns="http://www.w3.org/2000/svg">
<path d="M3 19C2.44772 19 2 19.4477 2 20C2 20.5523 2.44772 21 3 21H21C21.5523 21 22 20.5523 22 20C22 19.4477 21.5523 19 21 19H3Z" fill="white"/>
<path d="M13 4C13 3.44772 12.5523 3 12 3C11.4477 3 11 3.44772 11 4L11 14.9239L6.73344 10.3203C6.35803 9.91518 5.72533 9.89114 5.32025 10.2665C4.91518 10.642 4.89113 11.2747 5.26654 11.6797L10.5165 17.3445C10.9215 17.7815 11.4608 18 12 18C12.5392 18 13.0785 17.7815 13.4834 17.3445L18.7334 11.6797C19.1089 11.2747 19.0848 10.642 18.6797 10.2666C18.2747 9.89114 17.642 9.91518 17.2665 10.3203L13 14.9239L13 4Z" fill="white"/>
</svg>
