<svg width="20" height="20" viewBox="0 0 20 20" fill="none" xmlns="http://www.w3.org/2000/svg">
<path fill-rule="evenodd" clip-rule="evenodd" d="M2.66602 3.33337C2.11373 3.33337 1.66602 3.78109 1.66602 4.33337V15.6667C1.66602 16.219 2.11373 16.6667 2.66602 16.6667H17.3327C17.885 16.6667 18.3327 16.219 18.3327 15.6667V4.33337C18.3327 3.78109 17.885 3.33337 17.3327 3.33337H2.66602ZM7.49935 7.08337C7.49935 8.23397 6.56661 9.16671 5.41602 9.16671C4.26542 9.16671 3.33268 8.23397 3.33268 7.08337C3.33268 5.93278 4.26542 5.00004 5.41602 5.00004C6.56661 5.00004 7.49935 5.93278 7.49935 7.08337ZM16.666 15L11.666 8.33337L9.27471 11.5218L7.49935 10L3.33268 15H6.66602H13.3327H16.666Z" fill="#919CB3"/>
</svg>
