<svg width="25" height="24" viewBox="0 0 25 24" fill="none" xmlns="http://www.w3.org/2000/svg">
<path d="M10.1036 11.0748C9.82745 11.5531 9.99133 12.1647 10.4696 12.4409C10.9479 12.717 11.5595 12.5531 11.8356 12.0748L14.9592 6.66472C15.2353 6.18643 15.0715 5.57484 14.5932 5.29869L9.18304 2.17516C8.70474 1.89901 8.09315 2.06289 7.81701 2.54118C7.54087 3.01948 7.70474 3.63107 8.18304 3.90721L11.0484 5.56155C7.09828 6.19368 4.08008 9.61701 4.08008 13.7453C4.08008 18.3228 7.79085 22.0335 12.3683 22.0335C16.9458 22.0335 20.6566 18.3228 20.6566 13.7453C20.6566 13.193 20.2089 12.7453 19.6566 12.7453C19.1043 12.7453 18.6566 13.193 18.6566 13.7453C18.6566 17.2182 15.8412 20.0335 12.3683 20.0335C8.89542 20.0335 6.08008 17.2182 6.08008 13.7453C6.08008 10.3317 8.80005 7.55341 12.1909 7.45948L10.1036 11.0748Z" fill="#010E28"/>
</svg>
