<svg width="174" height="108" viewBox="0 0 174 108" fill="none" xmlns="http://www.w3.org/2000/svg">
  <path fill-rule="evenodd" clip-rule="evenodd" d="M124.023 49.9595C133.164 59.0974 145.77 63.5482 157.499 66.2742C166.946 68.3605 174 76.803 174 86.8728C174 98.5282 164.553 107.972 152.893 107.972C142.806 107.972 134.361 100.92 132.274 91.4765C129.547 79.7516 125.095 67.1505 115.954 58.0126C107.981 50.043 97.5046 46.3294 87 46.3294C76.5094 46.3294 66.0187 50.043 58.0464 58.0126C48.9053 67.1505 44.4531 79.7516 41.7261 91.4765C39.6251 100.92 31.1937 107.972 21.1065 107.972C9.44715 107.972 0 98.5282 0 86.8728C0 76.803 7.05405 68.3605 16.5012 66.2742C28.2301 63.5482 40.8356 59.0974 49.9766 49.9595C59.1177 40.8216 63.57 28.2204 66.297 16.4955C68.3979 7.05163 76.8294 0 86.9165 0H87H87.0835C97.1706 0 105.616 7.05163 107.703 16.4955C110.43 28.2204 114.882 40.8216 124.023 49.9595ZM66.0181 86.9425C66.0181 75.3149 75.4513 65.871 87.0828 65.871C92.676 65.8571 98.0326 68.0825 101.984 72.0464C105.935 75.9964 108.162 81.3512 108.162 86.9286C108.162 98.5561 98.7283 108 87.0967 108C75.4652 108 66.0181 98.57 66.0181 86.9425Z" fill="black"/>
</svg>
