<svg width="24" height="24" viewBox="0 0 24 24" fill="none" xmlns="http://www.w3.org/2000/svg">
  <path fill-rule="evenodd" clip-rule="evenodd" d="M4 4C2.89543 4 2 4.89543 2 6V18C2 19.1046 2.89543 20 4 20H20C21.1046 20 22 19.1046 22 18V6C22 4.89543 21.1046 4 20 4H4ZM5.65081 8.24076C5.23149 7.88134 4.60019 7.9299 4.24076 8.34922C3.88134 8.76855 3.9299 9.39985 4.34922 9.75927L11.3492 15.7593C11.7237 16.0803 12.2763 16.0803 12.6508 15.7593L19.6508 9.75927C20.0701 9.39985 20.1186 8.76855 19.7592 8.34923C19.3998 7.9299 18.7685 7.88134 18.3492 8.24076L12 13.6829L5.65081 8.24076Z" fill="#010E28"/>
</svg>
