<svg width="20" height="20" viewBox="0 0 20 20" fill="none" xmlns="http://www.w3.org/2000/svg">
<path fill-rule="evenodd" clip-rule="evenodd" d="M13.9709 12.6841C15.8413 10.1893 15.642 6.63446 13.3731 4.36553C10.8857 1.87816 6.8529 1.87816 4.36553 4.36553C1.87816 6.8529 1.87816 10.8857 4.36553 13.3731C6.63446 15.642 10.1893 15.8413 12.6841 13.9709L15.9467 17.2335C16.302 17.5888 16.8782 17.5888 17.2335 17.2335C17.5888 16.8782 17.5888 16.302 17.2335 15.9467L13.9709 12.6841ZM12.0863 5.65233C13.863 7.42902 13.863 10.3096 12.0863 12.0863C10.3096 13.863 7.42902 13.863 5.65233 12.0863C3.87563 10.3096 3.87563 7.42902 5.65233 5.65233C7.42902 3.87563 10.3096 3.87563 12.0863 5.65233Z" fill="#010E28"/>
</svg>
