<svg width="24" height="24" viewBox="0 0 24 24" fill="none" xmlns="http://www.w3.org/2000/svg">
<path fill-rule="evenodd" clip-rule="evenodd" d="M16.7651 15.2209C19.0096 12.2272 18.7704 7.96135 16.0477 5.23864C13.0629 2.25379 8.22348 2.25379 5.23864 5.23864C2.25379 8.22348 2.25379 13.0629 5.23864 16.0477C7.96135 18.7704 12.2272 19.0096 15.2209 16.7651L19.136 20.6802C19.5624 21.1066 20.2538 21.1066 20.6802 20.6802C21.1066 20.2538 21.1066 19.5624 20.6802 19.136L16.7651 15.2209ZM14.5036 6.78279C16.6356 8.91483 16.6356 12.3715 14.5036 14.5036C12.3715 16.6356 8.91483 16.6356 6.78279 14.5036C4.65076 12.3715 4.65076 8.91483 6.78279 6.78279C8.91483 4.65076 12.3715 4.65076 14.5036 6.78279Z" fill="#010E28"/>
</svg>
