<svg width="24" height="24" viewBox="0 0 24 24" fill="none" xmlns="http://www.w3.org/2000/svg">
<path d="M19.2 3H4.8C3.81 3 3 3.81 3 4.8V19.2C3 20.19 3.81 21 4.8 21H19.2C20.19 21 21 20.19 21 19.2V4.8C21 3.81 20.19 3 19.2 3ZM17.13 9.57C17.04 13.71 14.43 16.59 10.47 16.77C8.85 16.86 7.68 16.32 6.6 15.69C7.77 15.87 9.3 15.42 10.11 14.7C8.94 14.61 8.22 13.98 7.86 12.99C8.22 13.08 8.58 12.99 8.85 12.99C7.77 12.63 7.05 12 6.96 10.56C7.23 10.74 7.59 10.83 7.95 10.83C7.14 10.38 6.6 8.67 7.23 7.59C8.4 8.85 9.84 9.93 12.18 10.11C11.55 7.59 14.97 6.24 16.32 7.95C16.95 7.86 17.4 7.59 17.85 7.41C17.67 8.04 17.31 8.4 16.86 8.76C17.31 8.67 17.76 8.58 18.12 8.4C18.03 8.85 17.58 9.21 17.13 9.57Z" fill="#010E28"/>
</svg>
