<?xml version="1.0" encoding="UTF-8"?><!DOCTYPE svg PUBLIC "-//W3C//DTD SVG 1.1//EN" "http://www.w3.org/Graphics/SVG/1.1/DTD/svg11.dtd"><svg xmlns="http://www.w3.org/2000/svg" xmlns:xlink="http://www.w3.org/1999/xlink"><symbol id="icon-arrow-down" viewBox="0 0 24 24">
    <path fill-rule="evenodd" clip-rule="evenodd" d="M4.31 7.795a.991.991 0 0 1 1.402 0l6.308 6.308 6.308-6.308a.991.991 0 1 1 1.401 1.401l-7.009 7.01a.991.991 0 0 1-1.401 0l-7.01-7.01a.991.991 0 0 1 0-1.401z"/>
</symbol><symbol id="icon-arrow-triangle" viewBox="0 0 20 20">
    <path d="M10 12.5l-4.166-5h8.333L10 12.5z"/>
</symbol><symbol id="icon-check" viewBox="0 0 24 24">
    <path fill-rule="evenodd" clip-rule="evenodd" d="M18.849 7.292a1 1 0 0 1 0 1.415l-8.485 8.485a1 1 0 0 1-1.414 0l-3.657-3.657a1 1 0 1 1 1.414-1.414l2.95 2.95 7.778-7.779a1 1 0 0 1 1.414 0z"/>
</symbol><symbol id="icon-facebook-white" viewBox="0 0 24 24">
    <path d="M19.2 3H4.8C3.81 3 3 3.81 3 4.8v14.4c0 .99.81 1.8 1.8 1.8h14.4c.99 0 1.8-.81 1.8-1.8V4.8c0-.99-.81-1.8-1.8-1.8zm-.9 1.8v2.7h-1.8c-.54 0-.9.36-.9.9v1.8h2.7v2.7h-2.7v6.3h-2.7v-6.3h-1.8v-2.7h1.8V7.95c0-1.71 1.44-3.15 3.15-3.15h2.25z"/>
</symbol><symbol id="icon-linkedin-white" viewBox="0 0 24 24">
    <path d="M19.2 3H4.8C3.81 3 3 3.81 3 4.8v14.4c0 .99.81 1.8 1.8 1.8h14.4c.99 0 1.8-.81 1.8-1.8V4.8c0-.99-.81-1.8-1.8-1.8zM8.4 18.3H5.7v-8.1h2.7v8.1zM7.05 8.67c-.9 0-1.62-.72-1.62-1.62 0-.9.72-1.62 1.62-1.62.9 0 1.62.72 1.62 1.62 0 .9-.72 1.62-1.62 1.62zM18.3 18.3h-2.7v-4.77c0-.72-.63-1.35-1.35-1.35-.72 0-1.35.63-1.35 1.35v4.77h-2.7v-8.1h2.7v1.08c.45-.72 1.44-1.26 2.25-1.26 1.71 0 3.15 1.44 3.15 3.15v5.13z"/>
</symbol><symbol id="icon-logo-half" viewBox="0 0 174 108">
    <path fill-rule="evenodd" clip-rule="evenodd" d="M124.023 49.96c9.141 9.137 21.747 13.588 33.476 16.314C166.946 68.361 174 76.803 174 86.873c0 11.655-9.447 21.099-21.107 21.099-10.087 0-18.532-7.052-20.619-16.495-2.727-11.725-7.179-24.327-16.32-33.464-7.973-7.97-18.45-11.684-28.954-11.684-10.49 0-20.981 3.714-28.954 11.684-9.14 9.137-13.593 21.739-16.32 33.464-2.1 9.443-10.532 16.495-20.62 16.495C9.447 107.972 0 98.528 0 86.872c0-10.069 7.054-18.511 16.501-20.598 11.73-2.726 24.335-7.177 33.476-16.315 9.14-9.137 13.593-21.739 16.32-33.464C68.397 7.053 76.829 0 86.917 0h.167c10.087 0 18.532 7.052 20.619 16.495 2.727 11.725 7.179 24.327 16.32 33.465zM66.018 86.941c0-11.627 9.433-21.071 21.065-21.071a20.96 20.96 0 0 1 14.901 6.175 21.056 21.056 0 0 1 6.178 14.883c0 11.627-9.434 21.071-21.065 21.071-11.632 0-21.079-9.43-21.079-21.058z"/>
</symbol><symbol id="icon-mail" viewBox="0 0 24 24">
    <path fill-rule="evenodd" clip-rule="evenodd" d="M4 4a2 2 0 0 0-2 2v12a2 2 0 0 0 2 2h16a2 2 0 0 0 2-2V6a2 2 0 0 0-2-2H4zm1.65 4.24a1 1 0 0 0-1.3 1.52l7 6a1 1 0 0 0 1.3 0l7-6a1 1 0 0 0-1.3-1.52L12 13.684 5.65 8.24z"/>
</symbol><symbol id="icon-phone" viewBox="0 0 24 24">
    <path fill-rule="evenodd" clip-rule="evenodd" d="M5 2a1 1 0 0 0-1 1v18a1 1 0 0 0 1 1h14a1 1 0 0 0 1-1V3a1 1 0 0 0-1-1H5zm13 2h-2l-.549 1.371a1 1 0 0 1-.928.629H9.477a1 1 0 0 1-.928-.629L8 4H6v16h12V4zm-6 15a2 2 0 1 0 0-4 2 2 0 0 0 0 4z"/>
</symbol><symbol id="icon-play" viewBox="0 0 21 20">
    <path fill-rule="evenodd" clip-rule="evenodd" d="M10.5 18a8 8 0 1 0 0-16 8 8 0 0 0 0 16zm-2.4-4l6.4-4-6.4-4v8z"/>
</symbol><symbol id="icon-quote" viewBox="0 0 88 64">
    <path d="M47.035 42.525v-.85c0-6.38.78-12.12 2.341-17.223 1.703-5.103 4.044-9.427 7.023-12.97 2.98-3.686 6.598-6.52 10.855-8.505C71.652.992 76.476 0 81.726 0v22.113c-4.54 0-7.45 1.418-8.726 4.253 4.257 1.134 7.733 3.33 10.428 6.59 2.838 3.12 4.257 6.947 4.257 11.482v.851c0 5.386-1.986 9.852-5.96 13.395C77.754 62.228 72.859 64 67.042 64c-6.527 0-11.493-2.055-14.898-6.166-3.405-4.253-5.108-9.356-5.108-15.31zM34.69 0v22.113c-4.54 0-7.449 1.418-8.726 4.253 4.256 1.134 7.733 3.33 10.429 6.59 2.837 3.12 4.256 6.947 4.256 11.482v.851c0 5.386-1.986 9.852-5.96 13.395C30.719 62.228 25.824 64 20.007 64c-6.527 0-11.493-2.055-14.898-6.166C1.703 53.58 0 48.478 0 42.524v-.85c0-6.378.78-12.12 2.341-17.222 1.703-5.103 4.044-9.427 7.023-12.97 2.98-3.686 6.598-6.52 10.855-8.505C24.617.992 29.44 0 34.69 0z"/>
</symbol><symbol id="icon-twitter" viewBox="0 0 72 72">
    <path d="M67.812 16.141a26.246 26.246 0 0 1-7.519 2.06 13.134 13.134 0 0 0 5.756-7.244 26.127 26.127 0 0 1-8.313 3.176A13.075 13.075 0 0 0 48.182 10c-7.229 0-13.092 5.861-13.092 13.093 0 1.026.118 2.021.338 2.981-10.885-.548-20.528-5.757-26.987-13.679a13.048 13.048 0 0 0-1.771 6.581c0 4.542 2.312 8.551 5.824 10.898a13.048 13.048 0 0 1-5.93-1.638c-.002.055-.002.11-.002.162 0 6.345 4.513 11.638 10.504 12.84a13.177 13.177 0 0 1-3.449.457c-.846 0-1.667-.078-2.465-.231 1.667 5.2 6.499 8.986 12.23 9.09a26.276 26.276 0 0 1-16.26 5.606A26.21 26.21 0 0 1 4 55.976a37.036 37.036 0 0 0 20.067 5.882c24.083 0 37.251-19.949 37.251-37.249 0-.566-.014-1.134-.039-1.694a26.597 26.597 0 0 0 6.533-6.774z"/>
</symbol></svg>