<svg width="88" height="64" viewBox="0 0 88 64" fill="none" xmlns="http://www.w3.org/2000/svg">
<path d="M47.0349 42.5249V41.6744C47.0349 35.2957 47.8153 29.5548 49.376 24.4518C51.0787 19.3488 53.4198 15.0255 56.3994 11.4817C59.3789 7.79624 62.997 4.96125 67.2536 2.97675C71.652 0.992251 76.4761 0 81.7258 0V22.113C77.1855 22.113 74.2769 23.5305 72.9999 26.3655C77.2565 27.4995 80.7327 29.6966 83.4285 32.9568C86.2662 36.0753 87.685 39.9026 87.685 44.4385V45.289C87.685 50.6755 85.6986 55.1406 81.7258 58.6844C77.7531 62.2281 72.858 64 67.0407 64C60.514 64 55.548 61.9446 52.1428 57.8339C48.7376 53.5814 47.0349 48.4784 47.0349 42.5249ZM34.6909 0V22.113C30.1506 22.113 27.242 23.5305 25.965 26.3655C30.2215 27.4995 33.6977 29.6966 36.3935 32.9568C39.2312 36.0753 40.6501 39.9026 40.6501 44.4385V45.289C40.6501 50.6755 38.6637 55.1406 34.6909 58.6844C30.7181 62.2281 25.8231 64 20.0058 64C13.4791 64 8.51311 61.9446 5.10787 57.8339C1.70262 53.5814 0 48.4784 0 42.5249V41.6744C0 35.2957 0.780368 29.5548 2.3411 24.4518C4.04373 19.3488 6.38483 15.0255 9.36442 11.4817C12.344 7.79624 15.9621 4.96125 20.2186 2.97675C24.6171 0.992251 29.4412 0 34.6909 0Z" fill="#00BCFF"/>
</svg>
