<?xml version="1.0" standalone="no"?>
<!DOCTYPE svg PUBLIC "-//W3C//DTD SVG 20010904//EN"
 "http://www.w3.org/TR/2001/REC-SVG-20010904/DTD/svg10.dtd">
<svg version="1.0" xmlns="http://www.w3.org/2000/svg"
 width="260.000000pt" height="260.000000pt" viewBox="0 0 260.000000 260.000000"
 preserveAspectRatio="xMidYMid meet">
<metadata>
Created by potrace 1.11, written by Peter Selinger 2001-2013
</metadata>
<g transform="translate(0.000000,260.000000) scale(0.100000,-0.100000)"
fill="#000000" stroke="none">
<path d="M1187 2003 c-137 -47 -215 -202 -173 -345 27 -93 122 -181 210 -195
60 -10 213 -65 284 -103 199 -108 303 -265 381 -575 20 -80 97 -161 176 -188
62 -22 159 -16 218 12 89 44 157 151 157 251 0 126 -99 249 -220 275 -43 9
-160 47 -220 72 -223 90 -365 273 -435 558 -27 112 -73 177 -159 225 -53 29
-155 36 -219 13z"/>
<path d="M361 1129 c-166 -48 -247 -240 -168 -396 89 -174 328 -204 458 -56
40 47 60 95 66 160 17 192 -170 345 -356 292z"/>
<path d="M1187 1122 c-231 -83 -250 -402 -31 -512 60 -30 154 -36 220 -13 63
21 146 104 167 166 76 224 -136 438 -356 359z"/>
</g>
</svg>
